<svg version="1.1" viewBox="0 0 392.37 464.18" xmlns="http://www.w3.org/2000/svg">
    <g transform="translate(30.631 45.142)">
        <path transform="translate(-30.631 -45.142)" d="m196.25 45a223.06 222.88 0 0 0-85.209 16.902l20.494 20.492a196.54 196.54 0 0 1 50.193-10.404l2.5156 45.293a151.18 151.18 0 0 0-139.24 150.71 151.18 151.18 0 0 0 151.18 151.18 151.18 151.18 0 0 0 151.18-151.18 151.18 151.18 0 0 0-139.24-150.71l2.5156-45.293a196.54 196.54 0 0 1 50.193 10.406l20.533-20.531a223.06 222.88 0 0 0-85.121-16.865zm-0.64453 98.27a124.73 124.73 0 0 1 0.58203 0 124.73 124.73 0 0 1 2.457 0.02539c-0.8175-0.01151-1.6334-0.02539-2.457-0.02539 37.796 0-4.6867 121 0 124.72 21.338 16.956 124.72-37.796 124.72 0 0.00186-0.19513-0.00119-0.38726 0-0.58203a124.73 124.73 0 0 1 0.00196 0.58203 124.73 124.73 0 0 1-124.73 124.73 124.73 124.73 0 0 1-124.73-124.73 124.73 124.73 0 0 1 124.14-124.72z" stroke="#000" stroke-width="5"/>
    </g>
</svg>
