<?xml version="1.0" encoding="utf-8"?>
<!-- Generator: Adobe Illustrator 16.0.0, SVG Export Plug-In . SVG Version: 6.00 Build 0)  -->
<!DOCTYPE svg PUBLIC "-//W3C//DTD SVG 1.1//EN" "http://www.w3.org/Graphics/SVG/1.1/DTD/svg11.dtd">
<svg version="1.1" xmlns="http://www.w3.org/2000/svg" xmlns:xlink="http://www.w3.org/1999/xlink" x="0px" y="0px" width="70px"
	 height="70px" viewBox="0 0 70 70" enable-background="new 0 0 70 70" xml:space="preserve">
<g id="Layer_1">
	<path fill="#FFFFFF" stroke="#FFFFFF" stroke-miterlimit="10" d="M35,12V5.042c2.714,0,5.344,0.319,7.845,0.994l-1.796,6.768c1.942,0.528,3.782,1.305,5.484,2.293
		l3.479-6.025c2.35,1.357,4.469,2.947,6.297,4.783l-4.939,4.963c1.418,1.429,2.624,3.021,3.604,4.729l6.026-3.479
		c1.357,2.351,2.396,4.788,3.062,7.291l-6.759,1.828c0.514,1.947,0.761,3.929,0.756,5.896h6.958c0,2.715-0.318,5.344-0.994,7.846
		l-6.768-1.797c-0.528,1.942-1.305,3.783-2.293,5.485l6.025,3.479c-1.357,2.351-2.947,4.469-4.783,6.297l-4.963-4.939
		c-1.429,1.418-3.021,2.624-4.729,3.604l3.479,6.025c-2.351,1.356-4.787,2.396-7.291,3.062l-1.828-6.76
		c-1.946,0.514-3.929,0.762-5.897,0.758l0.001,6.957c-2.715,0-5.345-0.318-7.845-0.994l1.796-6.767
		c-1.943-0.528-3.783-1.306-5.484-2.294l-3.479,6.025c-2.351-1.357-4.469-2.947-6.297-4.783l4.939-4.963
		c-1.418-1.428-2.624-3.021-3.604-4.729l-6.025,3.479c-1.357-2.351-2.396-4.786-3.063-7.291l6.76-1.828
		c-0.514-1.945-0.762-3.928-0.756-5.896l-6.959,0.001c0.001-2.714,0.318-5.345,0.994-7.845l6.769,1.797
		c0.528-1.943,1.305-3.783,2.292-5.486l-6.025-3.479c1.357-2.351,2.949-4.469,4.783-6.297l4.963,4.939
		c1.43-1.419,3.021-2.624,4.729-3.604L19.984,9.06c2.352-1.357,4.787-2.396,7.291-3.062l1.828,6.759
		C31.049,12.243,33.032,11.995,35,12L35,12z M35.125,20.125C26.771,20.125,20,26.896,20,35.25s6.771,15.125,15.125,15.125
		S50.25,43.604,50.25,35.25S43.479,20.125,35.125,20.125z"/>
</g>
</svg>

