<?xml version="1.0" encoding="utf-8"?>
<!-- Generator: Adobe Illustrator 16.0.0, SVG Export Plug-In . SVG Version: 6.00 Build 0)  -->
<!DOCTYPE svg PUBLIC "-//W3C//DTD SVG 1.1//EN" "http://www.w3.org/Graphics/SVG/1.1/DTD/svg11.dtd">
<svg version="1.1" xmlns="http://www.w3.org/2000/svg" xmlns:xlink="http://www.w3.org/1999/xlink" x="0px" y="0px" width="70px"
	 height="70px" viewBox="0 0 70 70" enable-background="new 0 0 70 70" xml:space="preserve">
<g id="Layer_1">
	<path fill="#FFFFFF" d="M40.889,57.391l1.812,6.762c-5.31,1.423-10.582,1.347-15.529,0l1.812-6.762
		c-3.898-1.06-7.531-3.15-10.38-6.017l-4.95,4.949c-3.887-3.886-6.457-8.489-7.764-13.448l6.761-1.812
		c-1.031-3.906-1.038-8.097,0.021-11.997L5.91,27.255c1.422-5.31,4.124-9.837,7.765-13.448l4.949,4.949
		c2.867-2.846,6.493-4.947,10.4-5.98l-1.812-6.762c5.31-1.423,10.582-1.347,15.529,0l-1.812,6.762
		c3.898,1.06,7.531,3.15,10.38,6.017l4.95-4.949c3.887,3.886,6.457,8.489,7.764,13.447l-6.761,1.813
		c1.031,3.906,1.038,8.097-0.021,11.997l6.761,1.812c-1.422,5.31-4.124,9.837-7.765,13.448l-4.949-4.949
		C48.422,54.256,44.796,56.357,40.889,57.391z M35.042,22.083c-7.157,0-12.958,5.802-12.958,12.958
		C22.083,42.198,27.885,48,35.042,48C42.198,48,48,42.198,48,35.041C48,27.885,42.198,22.083,35.042,22.083z"/>
</g>
</svg>