<?xml version="1.0" encoding="UTF-8" standalone="no"?>
<svg
   xmlns:dc="http://purl.org/dc/elements/1.1/"
   xmlns:cc="http://creativecommons.org/ns#"
   xmlns:rdf="http://www.w3.org/1999/02/22-rdf-syntax-ns#"
   xmlns:svg="http://www.w3.org/2000/svg"
   xmlns="http://www.w3.org/2000/svg"
   xmlns:sodipodi="http://sodipodi.sourceforge.net/DTD/sodipodi-0.dtd"
   xmlns:inkscape="http://www.inkscape.org/namespaces/inkscape"
   width="392.3671"
   height="464.17853"
   viewBox="0 0 392.3671 464.17853"
   version="1.1"
   id="svg8"
   inkscape:version="1.0.2-2 (e86c870879, 2021-01-15)"
   sodipodi:docname="icons-inkscape.svg">
  <defs
     id="defs2" />
  <sodipodi:namedview
     id="base"
     pagecolor="#ffffff"
     bordercolor="#666666"
     borderopacity="1.0"
     inkscape:pageopacity="0.0"
     inkscape:pageshadow="2"
     inkscape:zoom="1.0059574"
     inkscape:cx="514.06366"
     inkscape:cy="340.42331"
     inkscape:document-units="px"
     inkscape:current-layer="layer4"
     inkscape:document-rotation="0"
     showgrid="true"
     showguides="true"
     inkscape:guide-bbox="true"
     inkscape:lockguides="false"
     gridtolerance="10000"
     guidetolerance="10000"
     inkscape:window-width="2400"
     inkscape:window-height="1271"
     inkscape:window-x="2391"
     inkscape:window-y="-9"
     inkscape:window-maximized="1"
     units="px"
     scale-x="1"
     viewbox-x="0"
     inkscape:pagecheckerboard="true"
     showborder="true"
     inkscape:showpageshadow="false"
     borderlayer="false"
     fit-margin-top="45"
     fit-margin-left="45"
     fit-margin-bottom="45"
     fit-margin-right="45"
     viewbox-y="0"
     viewbox-width="87.33769"
     inkscape:snap-tangential="true"
     inkscape:snap-perpendicular="true"
     objecttolerance="10000"
     inkscape:snap-path-clip="true"
     inkscape:snap-path-mask="true">
    <inkscape:grid
       type="xygrid"
       id="grid833"
       units="px"
       spacingx="1.3229"
       spacingy="1.3229"
       empspacing="10"
       dotted="true"
       snapvisiblegridlinesonly="true"
       originx="30.630779"
       originy="45.142151" />
    <sodipodi:guide
       position="196.09081,298.26772"
       orientation="1,0"
       id="guide839"
       inkscape:locked="false" />
    <sodipodi:guide
       position="214.98845,196.22047"
       orientation="0,-1"
       id="guide841"
       inkscape:locked="false" />
    <sodipodi:guide
       position="324.59476,320.94484"
       orientation="0,-1"
       id="guide843"
       inkscape:locked="false" />
    <sodipodi:guide
       position="44.909714,196.22047"
       orientation="1,0"
       id="guide845"
       inkscape:locked="false" />
    <sodipodi:guide
       position="347.27192,260.4724"
       orientation="1,0"
       id="guide847"
       inkscape:locked="false" />
    <sodipodi:guide
       position="196.09082,71.496024"
       orientation="0,-1"
       id="guide849"
       inkscape:locked="false" />
    <sodipodi:guide
       position="298.13806,347.40153"
       orientation="0,-1"
       id="guide851"
       inkscape:locked="false" />
    <sodipodi:guide
       position="-0.44461797,196.22044"
       orientation="1,0"
       id="guide853"
       inkscape:locked="false" />
    <sodipodi:guide
       position="-94.932807,45.03933"
       orientation="0,-1"
       id="guide857"
       inkscape:locked="false" />
    <sodipodi:guide
       position="196.09081,419.21256"
       orientation="0,-1"
       id="guide952"
       inkscape:locked="false" />
    <sodipodi:guide
       position="196.09081,392.75587"
       orientation="0,-1"
       id="guide954"
       inkscape:locked="false" />
    <sodipodi:guide
       position="71.366406,196.22047"
       orientation="1,0"
       id="guide956"
       inkscape:locked="false" />
    <sodipodi:guide
       position="320.81523,196.22044"
       orientation="1,0"
       id="guide958"
       inkscape:locked="false" />
    <sodipodi:guide
       position="-26.901307,196.22044"
       orientation="1,0"
       id="guide965"
       inkscape:locked="false" />
    <sodipodi:guide
       position="392.62625,196.22047"
       orientation="1,0"
       id="guide971"
       inkscape:locked="false" />
    <sodipodi:guide
       position="419.08294,196.22047"
       orientation="1,0"
       id="guide975"
       inkscape:locked="false" />
    <sodipodi:guide
       position="196.09081,-0.31500122"
       orientation="0,-1"
       id="guide979"
       inkscape:locked="false" />
    <sodipodi:guide
       position="196.09081,-26.771693"
       orientation="0,-1"
       id="guide981"
       inkscape:locked="false" />
    <sodipodi:guide
       position="347.27192,260.4724"
       orientation="0,-1"
       id="guide910" />
    <sodipodi:guide
       position="348.12678,127.99838"
       orientation="0,-1"
       id="guide914" />
    <sodipodi:guide
       position="123.23378,220.60138"
       orientation="1,0"
       id="guide916" />
    <sodipodi:guide
       position="268.75278,220.60138"
       orientation="1,0"
       id="guide918" />
  </sodipodi:namedview>
  <metadata
     id="metadata5">
    <rdf:RDF>
      <cc:Work
         rdf:about="">
        <dc:format>image/svg+xml</dc:format>
        <dc:type
           rdf:resource="http://purl.org/dc/dcmitype/StillImage" />
        <dc:title />
      </cc:Work>
    </rdf:RDF>
  </metadata>
  <g
     inkscape:groupmode="layer"
     id="layer2"
     inkscape:label="base"
     style="display:none;opacity:1"
     transform="translate(30.630782,45.142149)"
     sodipodi:insensitive="true">
    <path
       id="path985"
       style="fill:#000000;fill-opacity:1;stroke:#000000;stroke-width:5;stroke-linejoin:miter;stroke-miterlimit:4;stroke-dasharray:none;stroke-opacity:1"
       d="M 165.61527,-0.14214886 A 223.0582,222.87964 0 0 0 80.407173,16.760405 l 20.492447,20.492449 a 196.5379,196.5379 0 0 1 50.19399,-10.404432 l 2.51566,45.29354 A 151.183,151.183 0 0 0 14.369219,222.85284 151.183,151.183 0 0 0 165.55277,374.03639 151.183,151.183 0 0 0 316.73632,222.85284 151.183,151.183 0 0 0 177.49433,72.141962 l 2.51566,-45.29354 a 196.5379,196.5379 0 0 1 50.19399,10.406382 l 20.53151,-20.53151 A 223.0582,222.87964 0 0 0 165.61527,-0.14214886 Z M 165.55277,98.126662 A 124.72598,124.72598 0 0 1 290.27895,222.85284 124.72598,124.72598 0 0 1 165.55277,347.57902 124.72598,124.72598 0 0 1 40.826589,222.85284 124.72598,124.72598 0 0 1 165.55277,98.126662 Z" />
  </g>
  <g
     inkscape:groupmode="layer"
     id="layer3"
     inkscape:label="average-statistics"
     style="display:none;opacity:1"
     transform="translate(30.630782,45.142149)"
     sodipodi:insensitive="true">
    <path
       style="fill:#000000;fill-opacity:1;stroke:#000000;stroke-width:5;stroke-linecap:butt;stroke-linejoin:miter;stroke-miterlimit:4;stroke-dasharray:none;stroke-opacity:1"
       d="m 165.5524,98.126492 c 37.79576,0 -4.68667,121.001708 0,124.725948 21.33817,16.95623 124.72599,-37.79572 124.72599,0 C 291.00297,146.70526 241.14391,98.126502 165.5524,98.126492 Z"
       id="path1002"
       sodipodi:nodetypes="cscc" />
  </g>
  <g
     inkscape:groupmode="layer"
     id="layer5"
     inkscape:label="remaining-w-overtime"
     style="display:none"
     transform="translate(30.630782,45.142149)"
     sodipodi:insensitive="true">
    <path
       style="fill:#000000;fill-opacity:1;stroke:#000000;stroke-width:5;stroke-linecap:butt;stroke-linejoin:miter;stroke-miterlimit:4;stroke-dasharray:none;stroke-opacity:1"
       d="m 165.55241,98.126492 c -1e-5,-34.016168 90.7098,-41.575318 147.40343,-15.1183 l -22.67745,22.677448 c 45.3549,45.35491 49.13448,94.48939 49.13448,113.38726 h -41.57533 c 0.08,-41.13201 -7.55915,-60.47319 -34.01618,-86.93023 l -26.45702,26.45703 c 0,-15.1183 -34.01618,-60.473198 -71.81193,-60.473208 z"
       id="path1021"
       sodipodi:nodetypes="cccccccc" />
  </g>
  <g
     inkscape:groupmode="layer"
     id="layer7"
     inkscape:label="remaining-day-only"
     style="display:none;opacity:1"
     transform="translate(30.630782,45.142149)"
     sodipodi:insensitive="true">
    <path
       id="path1038"
       style="fill:#000000;fill-opacity:1;stroke:#000000;stroke-width:5;stroke-linecap:butt;stroke-linejoin:miter;stroke-miterlimit:4;stroke-dasharray:none;stroke-opacity:1"
       d="m 169.60165,82.894962 c -1.3416,0.0171 -2.69054,0.0542 -4.04883,0.11328 -86.930227,3.77957 0,15.11914 0,15.11914 37.79575,1e-5 11.33873,86.928898 0,124.724608 -56.69362,1e-5 -94.488837,98.26897 -113.386731,52.91406 1e-5,52.91406 64.252241,90.71094 113.386731,90.71094 90.70981,0 139.84374,-86.93137 139.84374,-143.625 0,-59.64446 -51.27393,-141.033318 -135.79491,-139.957028 z M 279.61922,203.29144 c 4.51624,0.32185 1.87916,22.46181 -0.98828,33.67969 -64.31873,13.30921 -122.18061,136.30021 -128.87109,104.63867 -4.23995,-20.06485 -12.87885,-42.19528 -16.3789,-72.65234 -1.29449,-11.26461 20.27547,-14.6476 33.55469,-28.15625 11.55929,-11.75894 -4.95826,39.35875 0.83789,42.52539 15.88225,8.677 72.29017,-71.21355 111.38671,-79.99609 0.1608,-0.0361 0.31329,-0.0494 0.45898,-0.0391 z" />
  </g>
  <g
     inkscape:groupmode="layer"
     id="layer8"
     inkscape:label="current-time"
     style="display:none"
     transform="translate(30.630782,45.142149)"
     sodipodi:insensitive="true">
    <path
       style="fill:#000000;fill-opacity:1;stroke:#000000;stroke-width:5;stroke-linecap:butt;stroke-linejoin:miter;stroke-miterlimit:4;stroke-dasharray:none;stroke-opacity:1"
       d="m 157.99326,109.46522 c 0,0 4.0591,49.13448 -3.50005,113.38722 -0.88322,7.50741 7.35721,12.32123 11.05919,11.55923 37.79576,-7.77962 68.03236,-45.57537 64.25279,-49.35495 -26.45703,-18.89787 -41.57533,37.79576 -56.69363,30.2366 -14.36227,-7.18114 41.57533,-120.946398 -15.1183,-105.8281 z"
       id="path1043"
       sodipodi:nodetypes="csscsc" />
  </g>
  <g
     inkscape:groupmode="layer"
     id="layer1"
     inkscape:label="eye"
     style="display:inline"
     sodipodi:insensitive="true">
    <path
       id="path900"
       style="fill:#000000;fill-opacity:1;stroke:#000000;stroke-width:5"
       d="M 196.08984,116.77734 A 222.99213,151.18109 0 0 0 -26.900391,267.95898 222.99213,151.18109 0 0 0 196.08984,419.13867 222.99213,151.18109 0 0 0 419.08203,267.95898 222.99213,151.18109 0 0 0 196.08984,116.77734 Z m -0.84179,26.45704 a 196.53543,124.7244 0 0 1 0.84179,0 196.53543,124.7244 0 0 1 196.53711,124.7246 A 196.53543,124.7244 0 0 1 196.08984,392.68164 196.53543,124.7244 0 0 1 -0.4453125,267.95898 196.53543,124.7244 0 0 1 195.24805,143.23438 Z" />
    <ellipse
       style="fill:#000000;fill-opacity:1;stroke:#000000;stroke-width:5"
       id="path920"
       cx="195.99329"
       cy="270.03516"
       rx="72.759499"
       ry="66.144997" />
  </g>
  <g
     inkscape:groupmode="layer"
     id="layer4"
     inkscape:label="crossed-eye"
     sodipodi:insensitive="true">
    <path
       style="fill:#000000;fill-opacity:1;stroke:#000000;stroke-width:1px;stroke-linecap:butt;stroke-linejoin:miter;stroke-opacity:1"
       d="M -26.901307,464.49353 -0.44461797,490.95022 419.08294,71.422661 392.62625,45.142151 Z"
       id="path929"
       sodipodi:nodetypes="ccccc" />
  </g>
</svg>
