<?xml version="1.0" encoding="utf-8"?>
<!-- Generator: Adobe Illustrator 16.0.0, SVG Export Plug-In . SVG Version: 6.00 Build 0)  -->
<!DOCTYPE svg PUBLIC "-//W3C//DTD SVG 1.1//EN" "http://www.w3.org/Graphics/SVG/1.1/DTD/svg11.dtd">
<svg version="1.1" xmlns="http://www.w3.org/2000/svg" xmlns:xlink="http://www.w3.org/1999/xlink" x="0px" y="0px" width="70px"
	 height="70px" viewBox="0 0 70 70" enable-background="new 0 0 70 70" xml:space="preserve">
<g id="Layer_1">
	<path fill="#FFFFFF" stroke="#FFFFFF" stroke-miterlimit="10" d="M33.968,19.794
		c-10.478,1.065-18.656,9.915-18.656,20.675c0,11.478,9.304,20.781,20.781,20.781c11.477,0,20.781-9.304,20.781-20.781L59,40.5
		c0-4.603-1.582-10.74-6.25-15.791l2.882-2.83c-6.546-4.041-12.757-3.129-17.414-2.085l0.15-4.911
		c2.254,0.198,4.424,0.688,6.474,1.43l3.287-3.249c-3.683-1.62-7.754-2.519-12.036-2.519c-4.279,0-8.349,0.897-12.031,2.516
		l3.281,3.252c2.048-0.741,4.217-1.23,6.471-1.43L33.968,19.794z M52.5,40.5c0,9.112-7.345,16.5-16.406,16.5
		c-9.061,0-16.406-7.388-16.406-16.5S27.033,24,36.094,24c4.172,0,7.029,4.125,9.156,8.125l2.914-2.801
		C50.856,32.264,52.5,36.188,52.5,40.5z"/>
</g>
</svg>

