<svg version="1.1" viewBox="0 0 392.37 464.18" xmlns="http://www.w3.org/2000/svg">
    <g transform="translate(30.631 45.142)" stroke="#000" stroke-width="5">
        <path transform="translate(-30.631 -45.142)" d="m196.25 45a223.06 222.88 0 0 0-85.209 16.902l20.494 20.492a196.54 196.54 0 0 1 50.193-10.404l2.5156 45.293a151.18 151.18 0 0 0-139.24 150.71 151.18 151.18 0 0 0 151.18 151.18 151.18 151.18 0 0 0 151.18-151.18 151.18 151.18 0 0 0-139.24-150.71l2.5156-45.293a196.54 196.54 0 0 1 50.193 10.406l20.533-20.531a223.06 222.88 0 0 0-85.121-16.865zm-0.64453 98.27a124.73 124.73 0 0 1 0.58203 0 124.73 124.73 0 0 1 124.73 124.72 124.73 124.73 0 0 1-124.73 124.73 124.73 124.73 0 0 1-124.73-124.73 124.73 124.73 0 0 1 124.14-124.72z"/>
        <path d="m169.6 82.895c-1.3416 0.0171-2.6905 0.0542-4.0488 0.11328-86.93 3.7796 0 15.119 0 15.119 37.796 1e-5 11.339 86.929 0 124.72-56.694 1e-5 -94.489 98.269-113.39 52.914 1e-5 52.914 64.252 90.711 113.39 90.711 90.71 0 139.84-86.931 139.84-143.62 0-59.644-51.274-141.03-135.79-139.96zm110.02 120.4c4.5162 0.32185 1.8792 22.462-0.98828 33.68-64.319 13.309-122.18 136.3-128.87 104.64-4.24-20.065-12.879-42.195-16.379-72.652-1.2945-11.265 20.275-14.648 33.555-28.156 11.559-11.759-4.9583 39.359 0.83789 42.525 15.882 8.677 72.29-71.214 111.39-79.996 0.1608-0.0361 0.31329-0.0494 0.45898-0.0391z"/>
    </g>
</svg>
